<?xml version="1.0" encoding="UTF-8"?>
<svg width="29px" height="29px" viewBox="0 0 29 29" version="1.1" xmlns="http://www.w3.org/2000/svg" xmlns:xlink="http://www.w3.org/1999/xlink">
    <!-- Generator: Sketch 63.1 (92452) - https://sketch.com -->
    <title>编组</title>
    <desc>Created with Sketch.</desc>
    <g id="招生计划管理" stroke="none" stroke-width="1" fill="none" fill-rule="evenodd">
        <g id="招生计划管理_新建(编辑)招生计划2" transform="translate(-797.000000, -343.000000)">
            <g id="编组" transform="translate(793.000000, 342.000000)">
                <g id="学校-(1)">
                    <g id="矩形">
                        <g id="蒙版">
                            <path d="M25,1 L25.095,1.19 L25.3271203,1.09234487 L25.351,1.148 C25.2660354,1.16444153 25.1847311,1.18371121 25.1041288,1.20704448 L25.854,2.707 L25.9885422,2.65055722 L25.351,1.148 L25.52962,1.12194448 C26.1373016,1.0530066 26.7554346,1.20244786 27.2651611,1.55350012 L27.4147081,1.66484735 L27.5172467,1.69872451 L27.5048265,1.73869408 C27.7796717,1.98234975 28.007627,2.28861366 28.1602628,2.64820114 L28.1602628,2.64820114 L30.856,9 L29.004,9 L26.7863738,3.77586685 L24.945,9 L23.144,9 L24.1210758,6.22839404 L24.1201158,6.22613248 L24.9583396,3.8365183 L24.9612195,3.84330298 L25.258,3 L25.166,3 L24.6988843,3.199319 L24.698,3.198 L11.03,9 L6.696,9 L23.086,2.043 L23,2 L25,1 Z M24.51,2.755 L24.698,3.198 L25.164,3 L25,3 L24.51,2.755 Z" id="形状结合" fill="#FEA666"></path>
                            <g transform="translate(18.118852, 16.102037) rotate(-23.000000) translate(-18.118852, -16.102037) translate(3.618852, 5.102037)"></g>
                        </g>
                    </g>
                    <path d="M31.2947143,27.2888492 L23.0162456,20.1025183 L31.2947143,11.0403708 L31.2947143,27.2888492 L31.2947143,27.2888492 Z M7.12203655,28.3084483 L15.1288768,21.3579764 L15.9708123,22.2805293 C16.0463272,22.3628343 16.1252235,22.4402256 16.207501,22.51516 C17.6050914,23.7706181 19.7623397,23.6662013 21.0280606,22.2805293 L21.8711232,21.3592049 L29.8790905,28.3084483 L7.12090945,28.3084483 L7.12203655,28.3084483 Z M5.70528566,27.2888492 L5.70528566,11.0403708 L13.9837544,20.1037467 L5.70528566,27.2900776 L5.70528566,27.2888492 Z M32.7790906,9.41392595 L32.6979401,9.34267685 C32.2549942,8.51717013 31.3871356,8 30.441508,8 L29.5984454,8 L29.5984454,9.69400858 L30.2239798,9.69400858 L29.5883016,10.3893015 L29.5883016,10.3819309 L27.8830159,12.2540622 L27.8830159,12.2565191 L19.7634668,21.1454576 C19.7259406,21.186999 19.6864381,21.2263631 19.6451224,21.2633871 C18.9463272,21.8898878 17.8688302,21.8382936 17.2354061,21.1454576 L9.11698407,12.2552906 L9.11698407,12.2380926 L7.41057133,10.3377073 L7.41057133,10.388073 L6.77489314,9.69278016 L31,9.69278016 L31,8 L6.55736496,8 C5.61399145,8 4.74613292,8.51594168 4.30093278,9.34267685 L4.21978236,9.41392595 L4.24795958,9.44586521 C4.08791293,9.77754203 4,10.1460718 4,10.5391702 L4,27.4620582 C4,28.3846111 4.50380878,29.2359149 5.31869414,29.6830644 L5.41336961,29.7911665 L5.45732608,29.7543135 C5.78981734,29.9115528 6.16401089,30 6.55736496,30 L30.441508,30 C30.8224641,30 31.1989118,29.9164666 31.5426739,29.7543135 L31.5855033,29.7911665 L31.6813059,29.6830644 C32.4950641,29.2359149 33,28.3858395 33,27.4620582 L33,10.5391702 C33,10.1485286 32.9098329,9.777542 32.7520404,9.44586521 L32.7790906,9.41392595 Z" id="形状" fill="#FFA05B" fill-rule="nonzero"></path>
                </g>
            </g>
        </g>
    </g>
</svg>