<?xml version="1.0" encoding="UTF-8"?>
<svg width="29px" height="26px" viewBox="0 0 29 26" version="1.1" xmlns="http://www.w3.org/2000/svg" xmlns:xlink="http://www.w3.org/1999/xlink">
    <!-- Generator: Sketch 63.1 (92452) - https://sketch.com -->
    <title>编组</title>
    <desc>Created with Sketch.</desc>
    <g id="招生计划管理" stroke="none" stroke-width="1" fill="none" fill-rule="evenodd">
        <g id="招生计划管理_新建(编辑)招生计划2" transform="translate(-1028.000000, -345.000000)" fill="#41b584" fill-rule="nonzero">
            <g id="编组" transform="translate(1028.000000, 345.000000)">
                <g id="学校-(1)">
                    <path d="M3.00574999,6.28457143 L3.00574999,6.96857143 L4.7733,8.98585714 L4.7733,2.69357142 C4.7733,2.18185713 5.1252,1.79485713 5.52079999,1.79485715 L23.4746,1.79485715 C23.8702,1.79485715 24.2221,2.18057143 24.2221,2.69357142 L24.2221,9 L25.98965,7.01357144 L25.98965,6.28457143 L26,6.28457143 L26,4.48714284 L25.98965,4.48714284 L25.98965,2.69357142 C25.98965,1.22014285 24.8799,0 23.4746,0 L5.52194998,0 C4.1155,0 3.00574999,1.22142858 3.00574999,2.69357142 L3.00574999,4.48714284 L3,4.48714284 L3,6.2832857 L3.00574999,6.2832857 L3.00574999,6.28457143 Z" id="路径"></path>
                    <path d="M27.2947143,23.2888492 L19.0162456,16.1025183 L27.2947143,7.04037076 L27.2947143,23.2888492 L27.2947143,23.2888492 Z M3.12203655,24.3084483 L11.1288768,17.3579764 L11.9708123,18.2805293 C12.0463272,18.3628343 12.1252235,18.4402256 12.207501,18.51516 C13.6050914,19.7706181 15.7623397,19.6662013 17.0280606,18.2805293 L17.8711232,17.3592049 L25.8790905,24.3084483 L3.12090945,24.3084483 L3.12203655,24.3084483 Z M1.70528566,23.2888492 L1.70528566,7.04037076 L9.98375438,16.1037467 L1.70528566,23.2900776 L1.70528566,23.2888492 Z M28.7509133,5.44586521 L28.7790906,5.41392595 L28.6979401,5.34267685 C28.2549942,4.51717013 27.3871356,4 26.441508,4 L25.5984454,4 L25.5984454,5.69400858 L26.2239798,5.69400858 L25.5883016,6.38930147 L25.5883016,6.38193086 L23.8830159,8.2540622 L23.8830159,8.25651907 L15.7634668,17.1454576 C15.7259406,17.186999 15.6864381,17.2263631 15.6451224,17.2633871 C14.9463272,17.8898878 13.8688302,17.8382936 13.2354061,17.1454576 L5.11698407,8.25529062 L5.11698407,8.23809258 L3.41057133,6.3377073 L3.41057133,6.38807302 L2.77489314,5.69278016 L3.40606297,5.69278016 L3.40606297,4 L2.55736496,4 C1.61399145,4 0.746132921,4.51594168 0.300932779,5.34267685 L0.219782364,5.41392595 L0.24795958,5.44586521 C0.087912931,5.77754203 0,6.14607181 0,6.53917024 L0,23.4620582 C0,24.3846111 0.503808779,25.2359149 1.31869414,25.6830644 L1.41336961,25.7911665 L1.45732608,25.7543135 C1.78981734,25.9115528 2.16401089,26 2.55736496,26 L26.441508,26 C26.8224641,26 27.1989118,25.9164666 27.5426739,25.7543135 L27.5855033,25.7911665 L27.6813059,25.6830644 C28.4950641,25.2359149 29,24.3858395 29,23.4620582 L29,6.53917024 C29,6.14852865 28.9098329,5.777542 28.7520404,5.44586521 L28.7509133,5.44586521 Z" id="形状"></path>
                    <path d="M9,5 L20,5 L20,6.66666667 L9,6.66666667 L9,5 Z M9,8.33333333 L20,8.33333333 L20,10 L9,10 L9,8.33333333 Z" id="形状"></path>
                </g>
            </g>
        </g>
    </g>
</svg>