<?xml version="1.0" encoding="UTF-8"?>
<svg width="20px" height="18px" viewBox="0 0 20 18" version="1.1" xmlns="http://www.w3.org/2000/svg" xmlns:xlink="http://www.w3.org/1999/xlink">
    <!-- Generator: Sketch 63.1 (92452) - https://sketch.com -->
    <title>人数</title>
    <desc>Created with Sketch.</desc>
    <g id="招生计划管理" stroke="none" stroke-width="1" fill="none" fill-rule="evenodd">
        <g id="招生计划管理_分专业招生计划表1" transform="translate(-567.000000, -333.000000)" fill="#B9BDCA" fill-rule="nonzero">
            <g id="人数" transform="translate(567.000000, 333.000000)">
                <path d="M10.0507773,9.98861398 C9.85140601,10.0037953 9.65116661,10.0037953 9.45179535,9.98861398 C8.1327882,9.79963645 6.99462311,8.96714988 6.41627683,7.76834874 C6.14073894,7.21751184 5.99818678,6.60989887 6.00001741,5.99416419 C6.00021252,3.7947283 7.78084776,2.00925692 9.98331001,2.00003531 C12.1857723,1.99088487 13.9812801,3.76144088 13.9998548,5.96079855 C14.0184294,8.16015623 12.2530814,9.96070235 10.0507773,9.98861398 L10.0507773,9.98861398 Z M10.0507773,3.00339594 C8.40811466,3.03051537 7.08302467,4.35377304 7.05586606,5.99416419 C7.05538305,6.45534499 7.16317345,6.9102165 7.370587,7.32226805 C7.81271024,8.18834564 8.64277213,8.79119225 9.60407889,8.94437964 C9.75276498,8.95563719 9.90209118,8.95563719 10.0507773,8.94437964 C11.7020167,8.94437964 13.0406107,7.6076366 13.0406107,5.9586805 C13.0406107,4.30972439 11.7020167,2.97298135 10.0507773,2.97298135 L10.0507773,3.00339594 Z" id="形状"></path>
                <path d="M15.9212891,18 L4.02387394,18 C3.45840398,18 3,17.5360621 3,16.9637657 C3,12.7566546 6.15353172,9.33708157 9.9725815,9.33708157 C13.7916313,9.33708157 16.9246855,12.7566546 16.9452143,16.9534034 C16.9478963,17.2300208 16.8412321,17.496261 16.6489214,17.6928396 C16.4566107,17.8894182 16.1946206,18 15.9212891,18 Z M9.9725815,10.3318665 C6.70642365,10.3318665 4.04435141,13.2851341 4.02387394,16.911954 L15.9212891,16.911954 C15.9008116,13.2851341 13.2387394,10.3318665 9.9725815,10.3318665 Z M12.9725321,8.16613686 L12.9725321,7.12990259 C14.4662992,7.1276949 15.732507,6.01716064 15.9471014,4.52104075 C16.1616959,3.02492086 15.2597544,1.59584641 13.8282647,1.1638658 C12.396775,0.731885198 10.8688152,1.42768839 10.2387887,2.79844338 L9.30706345,2.36322499 C10.1505377,0.525693423 12.1979394,-0.407787703 14.1166838,0.170352994 C16.0354282,0.74849369 17.2449512,2.66332528 16.9580151,4.66854846 C16.6710789,6.67377164 14.9745033,8.16265597 12.9725321,8.16613686 L12.9725321,8.16613686 Z" id="形状"></path>
                <path d="M18.986452,15.9999992 L16.303909,15.9999992 L16.303909,14.9589317 L18.986452,14.9589317 C18.986452,11.2631451 16.3342774,8.2961051 13.105103,8.2961051 L13.105103,7.25503845 C16.8910316,7.25503845 19.9784868,10.6905584 19.9987324,14.9068784 C20.0126065,15.1918897 19.9121127,15.4702635 19.7207488,15.6769095 C19.5293849,15.8835556 19.2639295,16.0003553 18.986452,15.9999992 L18.986452,15.9999992 Z M6.1811052,8.11912377 C4.34222485,7.7282443 3.01751101,6.0711616 3.00017207,4.14009895 C2.98283314,2.2090363 4.27756586,0.527077006 6.10911384,0.101339882 C7.94066183,-0.324397242 9.81289815,0.621410829 10.6047705,2.37243582 L9.68359532,2.80968382 C9.0922955,1.503361 7.69511647,0.798101123 6.32858699,1.11616229 C4.96205751,1.43422345 3.99630027,2.68945921 4.00954018,4.13032607 C4.0227801,5.57119293 5.01143114,6.80743402 6.38356127,7.09887845 L6.1811052,8.11912377 Z" id="形状"></path>
                <path d="M3.59276192,16 L0.957169231,16 C0.704821708,16 0.462809682,15.8867131 0.284373036,15.6850611 C0.105936391,15.483409 0.00569172783,15.2099102 0.00569172783,14.9247312 C-0.137205416,10.9527973 2.42638823,7.51449865 5.91436702,7 L6,8.07526882 C3.01496734,8.53272929 0.82711656,11.4801723 0.947654456,14.8817204 L3.59276192,14.8817204 L3.59276192,16 Z" id="路径"></path>
            </g>
        </g>
    </g>
</svg>