<?xml version="1.0" standalone="no"?><!DOCTYPE svg PUBLIC "-//W3C//DTD SVG 1.1//EN" "http://www.w3.org/Graphics/SVG/1.1/DTD/svg11.dtd"><svg t="1612457615413" class="icon" viewBox="0 0 1024 1024" version="1.1" xmlns="http://www.w3.org/2000/svg" p-id="3097" xmlns:xlink="http://www.w3.org/1999/xlink" width="64" height="64"><defs><style type="text/css"></style></defs><path d="M950.857143 512q0 89.142857-34.857143 170.285714t-93.714286 140-140 93.714286-170.285714 34.857143-170.285714-34.857143-140-93.714286-93.714286-140-34.857143-170.285714q0-104 46-196T248.571429 161.714286q24.571429-18.285714 54.571428-14.285715t47.714286 28.571429q18.285714 24 14 54T336.571429 278.285714q-56 42.285714-86.571429 103.428572T219.428571 512q0 59.428571 23.142858 113.428571T305.142857 718.857143t93.428572 62.571428T512 804.571429t113.428571-23.142858T718.857143 718.857143t62.571428-93.428572T804.571429 512q0-69.142857-30.571429-130.285714T687.428571 278.285714q-24-18.285714-28.285714-48.285714T673.142857 176q17.714286-24.571429 48-28.571429t54.285714 14.285715q83.428571 62.285714 129.428572 154.285714t46 196z m-365.714286-438.857143v365.714286q0 29.714286-21.714286 51.428571t-51.428571 21.714286-51.428571-21.714286-21.714286-51.428571V73.142857q0-29.714286 21.714286-51.428571t51.428571-21.714286 51.428571 21.714286 21.714286 51.428571z" p-id="3098"></path></svg>