<?xml version="1.0" encoding="UTF-8"?>
<svg width="31px" height="29px" viewBox="0 0 31 29" version="1.1" xmlns="http://www.w3.org/2000/svg" xmlns:xlink="http://www.w3.org/1999/xlink">
    <!-- Generator: Sketch 63.1 (92452) - https://sketch.com -->
    <title>编组</title>
    <desc>Created with Sketch.</desc>
    <g id="招生计划管理" stroke="none" stroke-width="1" fill="none" fill-rule="evenodd">
        <g id="招生计划管理_新建(编辑)招生计划2" transform="translate(-330.000000, -344.000000)" fill="#FFA05B" fill-rule="nonzero" stroke="#FFA05B">
            <g id="编组" transform="translate(330.000000, 344.000000)">
                <g id="学校-(1)">
                    <path d="M15.7252029,0.501453582 C16.1607718,0.521917804 16.9336859,0.835384832 19.6726021,3.49797183 C22.5385291,6.27950754 22.6782407,6.81772542 22.6782407,7.02577321 L22.6782407,7.02577321 L22.6782407,8.79639175 L27.2685185,8.79639175 C27.6275231,8.79639177 27.9483546,8.94211757 28.1806234,9.17436468 C28.4170523,9.41077164 28.5625,9.73659305 28.5625,10.0902062 L28.5625,10.0902062 L28.5625,27.8556701 L30.1388889,27.8556701 L0.789351852,28.5 L2.86805556,27.8556701 L2.86805556,10.0154639 C2.86805556,9.66185076 3.0135032,9.33602934 3.24993217,9.09962238 C3.48220091,8.86737527 3.80303248,8.72164948 4.16203703,8.72164948 L4.16203703,8.72164948 L8.60878418,8.72164948 L8.6088275,6.93301884 C8.61037347,6.65161308 8.82679844,6.14455172 11.7459598,3.43449283 C14.6108936,0.831404429 15.4030682,0.523095604 15.7252029,0.501453582 Z M27.6906166,9.44072165 L22.6064815,9.44072165 L22.6064815,27.8556701 L27.9182561,27.8556701 L27.6906166,9.44072165 Z M15.5512855,1.24673061 C15.1004101,1.40327003 13.9599379,2.24014091 12.0765066,3.96645883 C10.5399122,5.33823293 9.44102083,6.56321205 9.04398146,7.08629778 L9.04398146,27.8556701 L11.6226852,27.8556701 L11.6226852,21.6005155 C11.6226852,20.8443364 11.9238983,20.1662767 12.4152128,19.6772823 C12.9085599,19.1862649 13.5925549,18.8865979 14.3518518,18.8865979 L17.0069444,18.8865979 C17.7662413,18.8865979 18.4502363,19.186265 18.9435834,19.6772823 C19.4348979,20.1662767 19.7361111,20.8443364 19.7361111,21.6005155 L19.7361111,27.8556701 L22.099537,27.8556701 L22.099537,7.13428242 C21.8366066,6.36104338 17.0158266,1.75206628 15.5512855,1.24673061 Z M17.0069444,19.4561856 L14.3518518,19.4561856 C13.7480468,19.4561856 13.1932693,19.6803086 12.7915943,20.0463845 C12.3828198,20.4189308 12.1296296,20.9368246 12.1296296,21.5257732 L12.1296296,27.8556701 L19.2291666,27.8556701 L19.2291666,21.5257732 C19.2291666,20.9368247 18.9759765,20.4189308 18.5672019,20.0463845 C18.165527,19.6803086 17.6107495,19.4561856 17.0069444,19.4561856 Z M8.46527776,9.42244116 L3.30324072,9.60784191 L3.30324072,27.8556701 L8.46527776,27.8556701 L8.46527776,9.42244116 Z" id="形状"></path>
                    <path d="M12.2048087,15.176472 C12.1579219,15.2216631 12.125,15.2827997 12.125,15.3515873 C12.125,15.4203749 12.1579219,15.4815115 12.2048087,15.5267026 C12.258542,15.5784924 12.3323582,15.6111111 12.4130252,15.6111111 L19.3619748,15.6111111 C19.4426418,15.6111111 19.516458,15.5784924 19.5701913,15.5267026 C19.5943194,15.5034471 19.5768313,15.4634267 19.5445627,15.4188648 C19.3391563,15.3591563 19.0275981,15.3091696 18.5590269,15.2631709 C17.466834,15.1559524 15.5998945,15.0920635 12.2048087,15.176472 Z M12.2048087,12.3455197 C12.1662381,12.3826952 12.1371179,12.4306616 12.1280013,12.4848011 C12.1498144,12.5732826 12.1889141,12.6551236 12.2501511,12.7141458 C12.2923504,12.7548188 12.3474151,12.7801587 12.4130252,12.7801587 L19.3619748,12.7801587 C19.4426418,12.7801587 19.516458,12.74754 19.5701913,12.6957502 C19.5943194,12.6724947 19.5768313,12.6324743 19.5445627,12.5879124 C19.3391563,12.5282039 19.0275981,12.4782173 18.5590269,12.4322185 C17.466834,12.3250001 15.5998945,12.2611111 12.2048087,12.3455197 Z M12.2048087,9.44551965 C12.1579219,9.49071069 12.125,9.55184733 12.125,9.62063492 C12.125,9.68942251 12.1579219,9.75055915 12.2048087,9.79575018 C12.258542,9.84754003 12.3323582,9.88015873 12.4130252,9.88015873 L19.3619748,9.88015873 C19.4426418,9.88015873 19.516458,9.84754003 19.5701913,9.79575018 C19.5943194,9.77249474 19.5768313,9.73247428 19.5445627,9.68791243 C19.3391563,9.62820391 19.0275981,9.57821725 18.5590269,9.53221852 C17.466834,9.42500006 15.5998945,9.36111111 12.2048087,9.44551965 Z" id="形状"></path>
                </g>
            </g>
        </g>
    </g>
</svg>