<?xml version="1.0" encoding="UTF-8"?>
<svg width="26px" height="29px" viewBox="0 0 26 29" version="1.1" xmlns="http://www.w3.org/2000/svg" xmlns:xlink="http://www.w3.org/1999/xlink">
    <!-- Generator: Sketch 63.1 (92452) - https://sketch.com -->
    <title>编组</title>
    <desc>Created with Sketch.</desc>
    <g id="招生计划管理" stroke="none" stroke-width="1" fill="none" fill-rule="evenodd">
        <g id="招生计划管理_新建(编辑)招生计划2" transform="translate(-565.000000, -344.000000)" fill="#41b584" fill-rule="nonzero">
            <g id="编组" transform="translate(565.000000, 344.000000)">
                <g id="学校-(1)">
                    <path d="M24.0142856,0 L2.00119046,0 C0.889417984,0 0,0.920634921 0,2.07142857 L0,26.9285714 C0,28.0793651 0.905300448,29 2.00119046,29 L23.9984031,29 C25.1101756,29 25.9997994,28.0793651 25.9997994,26.9285714 L25.9997994,2.07142857 C26.015476,0.938339438 25.1101756,0 24.0142856,0 Z M2.01707293,26.9285714 L2.01707293,2.08913309 L24.0142856,2.08913309 L24.0142856,26.9285714 L24.1572277,26.9285714 L2.01707293,26.9285714 Z M10.3553665,10.1630037 L6.60710502,10.1630037 C6.01945386,10.1630037 5.54297994,10.6233211 5.54297994,11.2075702 C5.54297994,11.7741148 6.01945386,12.2344322 6.60710502,12.2344322 L10.3394841,12.2344322 C10.9271352,12.2344322 11.4036092,11.7741148 11.4036092,11.2075702 C11.4194916,10.6233211 10.9430177,10.1630037 10.3553665,10.1630037 Z M6.60710502,7.3034188 L19.3607236,7.3034188 C19.9483748,7.3034188 20.4248487,6.84310134 20.4248487,6.27655678 C20.4248487,5.71001221 19.9483748,5.23199023 19.3607236,5.23199023 L6.60710502,5.23199023 C6.01945386,5.23199023 5.54297994,5.69230769 5.54297994,6.27655678 C5.54297994,6.84310134 6.01945386,7.3034188 6.60710502,7.3034188 L6.60710502,7.3034188 Z M14.9495652,17.9700855 C14.9336828,17.9700855 14.9336828,17.952381 14.9178003,17.952381 L11.2965985,14.7655678 L11.2807161,14.7655678 L11.2489511,14.7478632 L11.2330687,14.7301587 L11.2171862,14.7124542 L11.2013037,14.6947497 L11.1854213,14.6770452 L11.1536564,14.6593407 L11.1377739,14.6416361 L11.106009,14.6239316 L11.0901265,14.6239316 L11.0583616,14.6062271 L10.9948317,14.6062271 L10.9630668,14.5885226 L10.1212962,14.5885226 L10.0895313,14.6062271 L10.0736488,14.6062271 L10.0577663,14.6239316 L10.0418839,14.6239316 L10.0101189,14.6416361 L9.99423648,14.6416361 L9.96247155,14.6593407 L9.94658909,14.6593407 L9.91482416,14.6770452 L9.8989417,14.6770452 L9.86717677,14.6947497 L9.8512943,14.7124542 L9.83541184,14.7301587 C9.81952938,14.7478632 9.80364691,14.7478632 9.80364691,14.7655678 L6.23009251,17.952381 C5.83303091,18.3064713 5.83303091,18.8907204 6.24597498,19.2625153 C6.65891904,19.6166056 7.31010006,19.6166056 7.70716166,19.2625153 L9.5018801,17.6691087 L9.51776256,23.971917 C9.51776256,24.485348 9.99423648,24.8925519 10.5660052,24.8925519 C11.1377739,24.8925519 11.6142478,24.485348 11.5983653,23.971917 L11.5824829,17.6514042 L13.4248487,19.2625153 C13.8219103,19.6343101 14.4889738,19.6343101 14.9019179,19.2802198 C15.3466268,18.9084249 15.3625093,18.3241758 14.9495652,17.9700855 L14.9495652,17.9700855 Z" id="形状"></path>
                </g>
            </g>
        </g>
    </g>
</svg>