<?xml version="1.0" encoding="UTF-8"?>
<svg width="20px" height="19px" viewBox="0 0 20 19" version="1.1" xmlns="http://www.w3.org/2000/svg" xmlns:xlink="http://www.w3.org/1999/xlink">
    <!-- Generator: Sketch 63.1 (92452) - https://sketch.com -->
    <title>word文档</title>
    <desc>Created with Sketch.</desc>
    <g id="招生计划管理" stroke="none" stroke-width="1" fill="none" fill-rule="evenodd">
        <g id="招生计划管理_新建(编辑)招生计划" transform="translate(-1703.000000, -321.000000)" fill="#B9BDCA" fill-rule="nonzero">
            <g id="word文档" transform="translate(1703.000000, 321.000000)">
                <path d="M7.7127886,8.00987084 L16.4174313,8.00987084 C16.6999977,8.00987084 16.9295243,7.78633356 16.9295243,7.51060484 C16.9295243,7.23505464 16.6999977,7.01122726 16.4174313,7.01122726 L7.7127886,7.01122726 C7.42974166,7.01122726 7.20067272,7.23507695 7.20067272,7.51060484 C7.20067272,7.78635587 7.42969589,8.00987084 7.7127886,8.00987084 M20,1.49799882 C20,0.67192835 19.3108253,0 18.4636066,0 L5.6625632,0 C4.81545888,0 4.09637783,0.697298892 4.09637783,1.52354786 L4.10051941,1.93808927 L4.09637783,16.5036031 C4.09637783,17.3294058 3.40734045,18.0013341 2.56021325,18.0013341 C1.71313183,18.0013341 1.02409445,17.3294058 1.02409445,16.5036031 C1.02409445,16.4952801 1.02386563,16.4869795 1.02343088,16.4787681 L1.05413815,16.4780317 L1.05413815,7.49001645 C1.05413815,7.21446625 1.25362102,7.0160094 1.53614168,7.0160094 L3.10223553,7.0160094 L3.10223553,6.01736582 L1.53614168,6.01736582 C0.689037353,6.01736582 0,6.68953964 0,7.51534234 L0,16.5035807 C0,17.8800599 1.14854816,19 2.56021325,19 C3.97185547,19 5.12054092,17.8800822 5.12054092,16.5035807 C5.12054092,16.4951462 5.12031211,16.4869571 5.11990022,16.4786342 L5.15047021,16.4778978 L5.15047021,1.49799882 C5.15047021,1.22267175 5.35006749,1.02399176 5.63261102,1.02399176 L18.433746,1.02399176 C18.7157403,1.02399176 18.9458389,1.24837696 18.9458389,1.52357015 L18.9458389,16.5036254 C18.9458389,17.3294281 18.2867309,17.975919 17.4396494,17.975919 L6.17660113,17.9700505 C5.89362283,17.9700505 5.6645539,18.1938778 5.6645539,18.4694281 C5.6645539,18.7452683 5.89364573,18.9688503 6.17660113,18.9688503 L17.4096057,19 C18.8212479,19 19.9699334,17.8801045 19.9699334,16.5035138 C19.9699334,16.4951908 19.9697046,16.4869348 19.9692698,16.4786788 L20,16.4779425 L20,1.49799882 L20,1.49799882 Z M7.7127886,4.99875515 L12.3212136,4.99875515 C12.6036657,4.99875515 12.8331922,4.7751063 12.8331922,4.49937758 C12.8331922,4.22364885 12.6036657,4 12.3212136,4 L7.7127886,4 C7.42974166,4 7.20067272,4.22362657 7.20067272,4.4993776 C7.20067272,4.7751063 7.42969589,4.99875515 7.7127886,4.99875515 M7.7127886,14.0307493 L16.4174313,14.0307493 C16.6999977,14.0307493 16.9295243,13.8069666 16.9295243,13.5311486 C16.9295243,13.2554645 16.6999977,13.031771 16.4174313,13.031771 L7.7127886,13.031771 C7.42974166,13.031771 7.20067272,13.2554422 7.20067272,13.5311486 C7.20067272,13.8069666 7.42969589,14.0307493 7.7127886,14.0307493 M7.7127886,11.0099378 L16.4174313,11.0099378 C16.6999977,11.0099378 16.9295243,10.7863336 16.9295243,10.5105602 C16.9295243,10.2348315 16.6999977,10.0112273 16.4174313,10.0112273 L7.7127886,10.0112273 C7.42974166,10.0112273 7.20067272,10.2348315 7.20067272,10.5105602 C7.20067272,10.7863113 7.42969589,11.0099378 7.7127886,11.0099378" id="形状"></path>
            </g>
        </g>
    </g>
</svg>